<svg fill="#10b981" width="800px" height="800px" viewBox="0 0 32 32" id="icon" xmlns="http://www.w3.org/2000/svg"><title>airport</title><path d="M29.56,15.68l-8.54-4.27a1,1,0,0,0-1,.12L15,15,8.12,4.68A2,2,0,0,0,6.44,3.75,2.05,2.05,0,0,0,4.28,5.42L3.06,11.5l.08.08,4.54,4.54L4.17,20.65a1,1,0,0,0-.14,1.15l1.6,3.19A1,1,0,0,0,6.53,25.5l7-1.4,4.54,4.54.08.08,6.08-1.22a2.05,2.05,0,0,0,1.67-2.16,2,2,0,0,0-.93-1.68L14.65,16.79l3.47-5,4.27,2.14,4.27,2.13a1,1,0,0,0,1.34-1.34l-2.13-4.27A1,1,0,0,0,29.56,15.68Z"/></svg>
